{
 "cells": [
  {
   "cell_type": "markdown",
   "id": "db0f8fa3",
   "metadata": {},
   "source": [
    "## This notebooks creates a Jarvis labelling set of images from a recording"
   ]
  },
  {
   "cell_type": "code",
   "execution_count": 1,
   "id": "60ca9edf",
   "metadata": {},
   "outputs": [],
   "source": [
    "%load_ext autoreload\n",
    "%autoreload 2"
   ]
  },
  {
   "cell_type": "code",
   "execution_count": 2,
   "id": "30ccbeea",
   "metadata": {},
   "outputs": [],
   "source": [
    "from pathlib import Path\n",
    "from multicamera_labelling_and_training.skeletons import sainburg25pt"
   ]
  },
  {
   "cell_type": "markdown",
   "id": "02e66cee",
   "metadata": {},
   "source": [
    "### Parameters"
   ]
  },
  {
   "cell_type": "code",
   "execution_count": 3,
   "id": "ee29fa38",
   "metadata": {},
   "outputs": [],
   "source": [
    "# should be a recording folder generated from multicamerae_acquisition\n",
    "recording_directory = Path('/n/groups/datta/tim_sainburg/datasets/chronic24/video/M04002/24-05-01-13-26-43-110846/')\n",
    "\n",
    "# should be a CalibrationParameters folder generated by multicamera_calibration\n",
    "calibration_directory = Path('/n/groups/datta/kpts_pipeline/tim_240731/results/camera_calibration/24-05-01-13-45-07-825493/jarvis/CalibrationParameters/')\n",
    "\n",
    "# where you want to save the labelling set\n",
    "output_directory = Path(\"/n/groups/datta/tim_sainburg/datasets/scratch/test-labeling-sets\")\n",
    "\n",
    "# dataset name (e.g. with mouse/condition name and time)\n",
    "dataset_name = '20240814-test-example-mouse' \n",
    "\n",
    "# choose the yaml dictionary corresponding to the dataset type you want\n",
    "#   Here, I'm using the 25 point skeleton\n",
    "skeleton_dict = sainburg25pt\n",
    "\n",
    "# name of cameras\n",
    "cameras = ['BackBottom', 'BackLeft', 'BackRight', 'FrontBottom', 'FrontLeft', 'FrontRight']"
   ]
  },
  {
   "cell_type": "markdown",
   "id": "9f21f0e4",
   "metadata": {},
   "source": [
    "### Ensure the contents"
   ]
  },
  {
   "cell_type": "code",
   "execution_count": 4,
   "id": "89a22478",
   "metadata": {},
   "outputs": [
    {
     "name": "stdout",
     "output_type": "stream",
     "text": [
      "BackBottom.yaml  BackRight.yaml    FrontLeft.yaml\r\n",
      "BackLeft.yaml\t FrontBottom.yaml  FrontRight.yaml\r\n"
     ]
    }
   ],
   "source": [
    "!ls {calibration_directory}"
   ]
  },
  {
   "cell_type": "code",
   "execution_count": 5,
   "id": "66d4270a",
   "metadata": {},
   "outputs": [
    {
     "name": "stdout",
     "output_type": "stream",
     "text": [
      "24-05-01-13-26-43-110846.BackBottom.0.metadata.csv\r\n",
      "24-05-01-13-26-43-110846.BackBottom.0.mp4\r\n",
      "24-05-01-13-26-43-110846.BackBottom.90000.metadata.csv\r\n",
      "24-05-01-13-26-43-110846.BackBottom.90000.mp4\r\n",
      "24-05-01-13-26-43-110846.BackLeft.0.metadata.csv\r\n",
      "24-05-01-13-26-43-110846.BackLeft.0.mp4\r\n",
      "24-05-01-13-26-43-110846.BackLeft.90000.metadata.csv\r\n",
      "24-05-01-13-26-43-110846.BackLeft.90000.mp4\r\n",
      "24-05-01-13-26-43-110846.BackRight.0.metadata.csv\r\n",
      "24-05-01-13-26-43-110846.BackRight.0.mp4\r\n",
      "24-05-01-13-26-43-110846.BackRight.90000.metadata.csv\r\n",
      "24-05-01-13-26-43-110846.BackRight.90000.mp4\r\n",
      "24-05-01-13-26-43-110846.FrontBottom.0.metadata.csv\r\n",
      "24-05-01-13-26-43-110846.FrontBottom.0.mp4\r\n",
      "24-05-01-13-26-43-110846.FrontBottom.90000.metadata.csv\r\n",
      "24-05-01-13-26-43-110846.FrontBottom.90000.mp4\r\n",
      "24-05-01-13-26-43-110846.FrontLeft.0.metadata.csv\r\n",
      "24-05-01-13-26-43-110846.FrontLeft.0.mp4\r\n",
      "24-05-01-13-26-43-110846.FrontLeft.90000.metadata.csv\r\n",
      "24-05-01-13-26-43-110846.FrontLeft.90000.mp4\r\n",
      "24-05-01-13-26-43-110846.FrontRight.0.metadata.csv\r\n",
      "24-05-01-13-26-43-110846.FrontRight.0.mp4\r\n",
      "24-05-01-13-26-43-110846.FrontRight.90000.metadata.csv\r\n",
      "24-05-01-13-26-43-110846.FrontRight.90000.mp4\r\n",
      "24-05-01-13-26-43-110846.recording_config.yaml\r\n",
      "24-05-01-13-26-43-110846.triggerdata.csv\r\n"
     ]
    }
   ],
   "source": [
    "!ls {recording_directory}"
   ]
  },
  {
   "cell_type": "markdown",
   "id": "5d60b29e",
   "metadata": {},
   "source": [
    "### Create and save labeling set"
   ]
  },
  {
   "cell_type": "code",
   "execution_count": 6,
   "id": "14292554",
   "metadata": {},
   "outputs": [],
   "source": [
    "from multicamera_labelling_and_training.video_to_labelling_set import LabellingSetCreator"
   ]
  },
  {
   "cell_type": "code",
   "execution_count": 7,
   "id": "1325f864",
   "metadata": {},
   "outputs": [],
   "source": [
    "lsc = LabellingSetCreator(\n",
    "    recording_directory=recording_directory,\n",
    "    output_directory=output_directory,\n",
    "    skeleton_dict=skeleton_dict,\n",
    "    cameras = cameras,\n",
    "    n_individuals=1,\n",
    "    skeleton_name=\"RodentBody\",\n",
    "    n_jobs=5,\n",
    "    calibration_directory=calibration_directory,\n",
    "    remux_videos=True, \n",
    ")"
   ]
  },
  {
   "cell_type": "code",
   "execution_count": 8,
   "id": "315b24f1",
   "metadata": {},
   "outputs": [
    {
     "data": {
      "application/vnd.jupyter.widget-view+json": {
       "model_id": "4887f1a384b24bcdae6b8831730a9e0f",
       "version_major": 2,
       "version_minor": 0
      },
      "text/plain": [
       "remuxing videos:   0%|          | 0/12 [00:00<?, ?it/s]"
      ]
     },
     "metadata": {},
     "output_type": "display_data"
    },
    {
     "name": "stderr",
     "output_type": "stream",
     "text": [
      "ffmpeg version 4.2 Copyright (c) 2000-2019 the FFmpeg developers\n",
      "  built with gcc 7.3.0 (crosstool-NG 1.23.0.449-a04d0)\n",
      "  configuration: --prefix=/home/tis697/.conda/envs/jupyter_launcher --cc=/home/conda/feedstock_root/build_artifacts/ffmpeg_1566210161358/_build_env/bin/x86_64-conda_cos6-linux-gnu-cc --disable-doc --disable-openssl --enable-avresample --enable-gnutls --enable-gpl --enable-hardcoded-tables --enable-libfreetype --enable-libopenh264 --enable-libx264 --enable-pic --enable-pthreads --enable-shared --enable-static --enable-version3 --enable-zlib --enable-libmp3lame\n",
      "  libavutil      56. 31.100 / 56. 31.100\n",
      "  libavcodec     58. 54.100 / 58. 54.100\n",
      "  libavformat    58. 29.100 / 58. 29.100\n",
      "  libavdevice    58.  8.100 / 58.  8.100\n",
      "  libavfilter     7. 57.100 /  7. 57.100\n",
      "  libavresample   4.  0.  0 /  4.  0.  0\n",
      "  libswscale      5.  5.100 /  5.  5.100\n",
      "  libswresample   3.  5.100 /  3.  5.100\n",
      "  libpostproc    55.  5.100 / 55.  5.100\n",
      "[h264 @ 0x55fc5bdf7940] Stream #0: not enough frames to estimate rate; consider increasing probesize\n",
      "Input #0, h264, from '/n/groups/datta/tim_sainburg/datasets/chronic24/video/M04002/24-05-01-13-26-43-110846/24-05-01-13-26-43-110846.BackBottom.0.mp4':\n",
      "  Duration: N/A, bitrate: N/A\n",
      "    Stream #0:0: Video: h264 (High), yuv420p(progressive), 1220x1200 [SAR 1:1 DAR 61:60], 150 fps, 150 tbr, 1200k tbn, 300 tbc\n",
      "Output #0, mp4, to '/tmp/tmp4wvey07p/24-05-01-13-26-43-110846.BackBottom.0.mp4':\n",
      "  Metadata:\n",
      "    encoder         : Lavf58.29.100\n",
      "    Stream #0:0: Video: h264 (High) (avc1 / 0x31637661), yuv420p(progressive), 1220x1200 [SAR 1:1 DAR 61:60], q=2-31, 150 fps, 150 tbr, 1200k tbn, 1200k tbc\n",
      "Stream mapping:\n",
      "  Stream #0:0 -> #0:0 (copy)\n",
      "Press [q] to stop, [?] for help\n",
      "[mp4 @ 0x55fc5be1f1c0] Timestamps are unset in a packet for stream 0. This is deprecated and will stop working in the future. Fix your code to set the timestamps properly\n",
      "frame=90000 fps=26004 q=-1.0 Lsize= 2304003kB time=00:10:00.05 bitrate=31454.3kbits/s speed= 173x    \n",
      "video:2303052kB audio:0kB subtitle:0kB other streams:0kB global headers:0kB muxing overhead: 0.041274%\n",
      "ffmpeg version 4.2 Copyright (c) 2000-2019 the FFmpeg developers\n",
      "  built with gcc 7.3.0 (crosstool-NG 1.23.0.449-a04d0)\n",
      "  configuration: --prefix=/home/tis697/.conda/envs/jupyter_launcher --cc=/home/conda/feedstock_root/build_artifacts/ffmpeg_1566210161358/_build_env/bin/x86_64-conda_cos6-linux-gnu-cc --disable-doc --disable-openssl --enable-avresample --enable-gnutls --enable-gpl --enable-hardcoded-tables --enable-libfreetype --enable-libopenh264 --enable-libx264 --enable-pic --enable-pthreads --enable-shared --enable-static --enable-version3 --enable-zlib --enable-libmp3lame\n",
      "  libavutil      56. 31.100 / 56. 31.100\n",
      "  libavcodec     58. 54.100 / 58. 54.100\n",
      "  libavformat    58. 29.100 / 58. 29.100\n",
      "  libavdevice    58.  8.100 / 58.  8.100\n",
      "  libavfilter     7. 57.100 /  7. 57.100\n",
      "  libavresample   4.  0.  0 /  4.  0.  0\n",
      "  libswscale      5.  5.100 /  5.  5.100\n",
      "  libswresample   3.  5.100 /  3.  5.100\n",
      "  libpostproc    55.  5.100 / 55.  5.100\n",
      "[h264 @ 0x55bf1e7b4940] Stream #0: not enough frames to estimate rate; consider increasing probesize\n",
      "Input #0, h264, from '/n/groups/datta/tim_sainburg/datasets/chronic24/video/M04002/24-05-01-13-26-43-110846/24-05-01-13-26-43-110846.BackLeft.0.mp4':\n",
      "  Duration: N/A, bitrate: N/A\n",
      "    Stream #0:0: Video: h264 (High), yuv420p(progressive), 1920x950 [SAR 1:1 DAR 192:95], 150 fps, 150 tbr, 1200k tbn, 300 tbc\n",
      "Output #0, mp4, to '/tmp/tmp4wvey07p/24-05-01-13-26-43-110846.BackLeft.0.mp4':\n",
      "  Metadata:\n",
      "    encoder         : Lavf58.29.100\n",
      "    Stream #0:0: Video: h264 (High) (avc1 / 0x31637661), yuv420p(progressive), 1920x950 [SAR 1:1 DAR 192:95], q=2-31, 150 fps, 150 tbr, 1200k tbn, 1200k tbc\n",
      "Stream mapping:\n",
      "  Stream #0:0 -> #0:0 (copy)\n",
      "Press [q] to stop, [?] for help\n",
      "[mp4 @ 0x55bf1e7bafc0] Timestamps are unset in a packet for stream 0. This is deprecated and will stop working in the future. Fix your code to set the timestamps properly\n",
      "frame=90000 fps=26467 q=-1.0 Lsize= 2303791kB time=00:10:00.05 bitrate=31451.5kbits/s speed= 176x    \n",
      "video:2302842kB audio:0kB subtitle:0kB other streams:0kB global headers:0kB muxing overhead: 0.041235%\n",
      "ffmpeg version 4.2 Copyright (c) 2000-2019 the FFmpeg developers\n",
      "  built with gcc 7.3.0 (crosstool-NG 1.23.0.449-a04d0)\n",
      "  configuration: --prefix=/home/tis697/.conda/envs/jupyter_launcher --cc=/home/conda/feedstock_root/build_artifacts/ffmpeg_1566210161358/_build_env/bin/x86_64-conda_cos6-linux-gnu-cc --disable-doc --disable-openssl --enable-avresample --enable-gnutls --enable-gpl --enable-hardcoded-tables --enable-libfreetype --enable-libopenh264 --enable-libx264 --enable-pic --enable-pthreads --enable-shared --enable-static --enable-version3 --enable-zlib --enable-libmp3lame\n",
      "  libavutil      56. 31.100 / 56. 31.100\n",
      "  libavcodec     58. 54.100 / 58. 54.100\n",
      "  libavformat    58. 29.100 / 58. 29.100\n",
      "  libavdevice    58.  8.100 / 58.  8.100\n",
      "  libavfilter     7. 57.100 /  7. 57.100\n",
      "  libavresample   4.  0.  0 /  4.  0.  0\n",
      "  libswscale      5.  5.100 /  5.  5.100\n",
      "  libswresample   3.  5.100 /  3.  5.100\n",
      "  libpostproc    55.  5.100 / 55.  5.100\n",
      "[h264 @ 0x560827f50940] Stream #0: not enough frames to estimate rate; consider increasing probesize\n",
      "Input #0, h264, from '/n/groups/datta/tim_sainburg/datasets/chronic24/video/M04002/24-05-01-13-26-43-110846/24-05-01-13-26-43-110846.FrontBottom.0.mp4':\n",
      "  Duration: N/A, bitrate: N/A\n",
      "    Stream #0:0: Video: h264 (High), yuv420p(progressive), 1220x1200 [SAR 1:1 DAR 61:60], 150 fps, 150 tbr, 1200k tbn, 300 tbc\n",
      "Output #0, mp4, to '/tmp/tmp4wvey07p/24-05-01-13-26-43-110846.FrontBottom.0.mp4':\n",
      "  Metadata:\n",
      "    encoder         : Lavf58.29.100\n",
      "    Stream #0:0: Video: h264 (High) (avc1 / 0x31637661), yuv420p(progressive), 1220x1200 [SAR 1:1 DAR 61:60], q=2-31, 150 fps, 150 tbr, 1200k tbn, 1200k tbc\n",
      "Stream mapping:\n",
      "  Stream #0:0 -> #0:0 (copy)\n",
      "Press [q] to stop, [?] for help\n",
      "[mp4 @ 0x560827f56a80] Timestamps are unset in a packet for stream 0. This is deprecated and will stop working in the future. Fix your code to set the timestamps properly\n",
      "frame=90000 fps=26689 q=-1.0 Lsize= 2303982kB time=00:10:00.05 bitrate=31454.1kbits/s speed= 178x    \n",
      "video:2303032kB audio:0kB subtitle:0kB other streams:0kB global headers:0kB muxing overhead: 0.041254%\n",
      "ffmpeg version 4.2 Copyright (c) 2000-2019 the FFmpeg developers\n",
      "  built with gcc 7.3.0 (crosstool-NG 1.23.0.449-a04d0)\n",
      "  configuration: --prefix=/home/tis697/.conda/envs/jupyter_launcher --cc=/home/conda/feedstock_root/build_artifacts/ffmpeg_1566210161358/_build_env/bin/x86_64-conda_cos6-linux-gnu-cc --disable-doc --disable-openssl --enable-avresample --enable-gnutls --enable-gpl --enable-hardcoded-tables --enable-libfreetype --enable-libopenh264 --enable-libx264 --enable-pic --enable-pthreads --enable-shared --enable-static --enable-version3 --enable-zlib --enable-libmp3lame\n",
      "  libavutil      56. 31.100 / 56. 31.100\n",
      "  libavcodec     58. 54.100 / 58. 54.100\n",
      "  libavformat    58. 29.100 / 58. 29.100\n",
      "  libavdevice    58.  8.100 / 58.  8.100\n",
      "  libavfilter     7. 57.100 /  7. 57.100\n",
      "  libavresample   4.  0.  0 /  4.  0.  0\n",
      "  libswscale      5.  5.100 /  5.  5.100\n",
      "  libswresample   3.  5.100 /  3.  5.100\n",
      "  libpostproc    55.  5.100 / 55.  5.100\n",
      "[h264 @ 0x5565b451f940] Stream #0: not enough frames to estimate rate; consider increasing probesize\n",
      "Input #0, h264, from '/n/groups/datta/tim_sainburg/datasets/chronic24/video/M04002/24-05-01-13-26-43-110846/24-05-01-13-26-43-110846.BackRight.0.mp4':\n",
      "  Duration: N/A, bitrate: N/A\n",
      "    Stream #0:0: Video: h264 (High), yuv420p(progressive), 1920x950 [SAR 1:1 DAR 192:95], 150 fps, 150 tbr, 1200k tbn, 300 tbc\n",
      "Output #0, mp4, to '/tmp/tmp4wvey07p/24-05-01-13-26-43-110846.BackRight.0.mp4':\n",
      "  Metadata:\n",
      "    encoder         : Lavf58.29.100\n",
      "    Stream #0:0: Video: h264 (High) (avc1 / 0x31637661), yuv420p(progressive), 1920x950 [SAR 1:1 DAR 192:95], q=2-31, 150 fps, 150 tbr, 1200k tbn, 1200k tbc\n",
      "Stream mapping:\n",
      "  Stream #0:0 -> #0:0 (copy)\n",
      "Press [q] to stop, [?] for help\n",
      "[mp4 @ 0x5565b4527940] Timestamps are unset in a packet for stream 0. This is deprecated and will stop working in the future. Fix your code to set the timestamps properly\n"
     ]
    },
    {
     "name": "stderr",
     "output_type": "stream",
     "text": [
      "frame=90000 fps=25934 q=-1.0 Lsize= 2303845kB time=00:10:00.05 bitrate=31452.2kbits/s speed= 173x    \n",
      "video:2302895kB audio:0kB subtitle:0kB other streams:0kB global headers:0kB muxing overhead: 0.041258%\n",
      "ffmpeg version 4.2 Copyright (c) 2000-2019 the FFmpeg developers\n",
      "  built with gcc 7.3.0 (crosstool-NG 1.23.0.449-a04d0)\n",
      "  configuration: --prefix=/home/tis697/.conda/envs/jupyter_launcher --cc=/home/conda/feedstock_root/build_artifacts/ffmpeg_1566210161358/_build_env/bin/x86_64-conda_cos6-linux-gnu-cc --disable-doc --disable-openssl --enable-avresample --enable-gnutls --enable-gpl --enable-hardcoded-tables --enable-libfreetype --enable-libopenh264 --enable-libx264 --enable-pic --enable-pthreads --enable-shared --enable-static --enable-version3 --enable-zlib --enable-libmp3lame\n",
      "  libavutil      56. 31.100 / 56. 31.100\n",
      "  libavcodec     58. 54.100 / 58. 54.100\n",
      "  libavformat    58. 29.100 / 58. 29.100\n",
      "  libavdevice    58.  8.100 / 58.  8.100\n",
      "  libavfilter     7. 57.100 /  7. 57.100\n",
      "  libavresample   4.  0.  0 /  4.  0.  0\n",
      "  libswscale      5.  5.100 /  5.  5.100\n",
      "  libswresample   3.  5.100 /  3.  5.100\n",
      "  libpostproc    55.  5.100 / 55.  5.100\n",
      "[h264 @ 0x5649851e0940] Stream #0: not enough frames to estimate rate; consider increasing probesize\n",
      "Input #0, h264, from '/n/groups/datta/tim_sainburg/datasets/chronic24/video/M04002/24-05-01-13-26-43-110846/24-05-01-13-26-43-110846.FrontRight.0.mp4':\n",
      "  Duration: N/A, bitrate: N/A\n",
      "    Stream #0:0: Video: h264 (High), yuv420p(progressive), 1920x950 [SAR 1:1 DAR 192:95], 150 fps, 150 tbr, 1200k tbn, 300 tbc\n",
      "Output #0, mp4, to '/tmp/tmp4wvey07p/24-05-01-13-26-43-110846.FrontRight.0.mp4':\n",
      "  Metadata:\n",
      "    encoder         : Lavf58.29.100\n",
      "    Stream #0:0: Video: h264 (High) (avc1 / 0x31637661), yuv420p(progressive), 1920x950 [SAR 1:1 DAR 192:95], q=2-31, 150 fps, 150 tbr, 1200k tbn, 1200k tbc\n",
      "Stream mapping:\n",
      "  Stream #0:0 -> #0:0 (copy)\n",
      "Press [q] to stop, [?] for help\n",
      "[mp4 @ 0x5649851e4300] Timestamps are unset in a packet for stream 0. This is deprecated and will stop working in the future. Fix your code to set the timestamps properly\n",
      "frame=90000 fps=26373 q=-1.0 Lsize= 2303847kB time=00:10:00.05 bitrate=31452.2kbits/s speed= 176x    \n",
      "video:2302898kB audio:0kB subtitle:0kB other streams:0kB global headers:0kB muxing overhead: 0.041247%\n",
      "ffmpeg version 4.2 Copyright (c) 2000-2019 the FFmpeg developers\n",
      "  built with gcc 7.3.0 (crosstool-NG 1.23.0.449-a04d0)\n",
      "  configuration: --prefix=/home/tis697/.conda/envs/jupyter_launcher --cc=/home/conda/feedstock_root/build_artifacts/ffmpeg_1566210161358/_build_env/bin/x86_64-conda_cos6-linux-gnu-cc --disable-doc --disable-openssl --enable-avresample --enable-gnutls --enable-gpl --enable-hardcoded-tables --enable-libfreetype --enable-libopenh264 --enable-libx264 --enable-pic --enable-pthreads --enable-shared --enable-static --enable-version3 --enable-zlib --enable-libmp3lame\n",
      "  libavutil      56. 31.100 / 56. 31.100\n",
      "  libavcodec     58. 54.100 / 58. 54.100\n",
      "  libavformat    58. 29.100 / 58. 29.100\n",
      "  libavdevice    58.  8.100 / 58.  8.100\n",
      "  libavfilter     7. 57.100 /  7. 57.100\n",
      "  libavresample   4.  0.  0 /  4.  0.  0\n",
      "  libswscale      5.  5.100 /  5.  5.100\n",
      "  libswresample   3.  5.100 /  3.  5.100\n",
      "  libpostproc    55.  5.100 / 55.  5.100\n",
      "[h264 @ 0x55604a81d940] Stream #0: not enough frames to estimate rate; consider increasing probesize\n",
      "Input #0, h264, from '/n/groups/datta/tim_sainburg/datasets/chronic24/video/M04002/24-05-01-13-26-43-110846/24-05-01-13-26-43-110846.FrontLeft.0.mp4':\n",
      "  Duration: N/A, bitrate: N/A\n",
      "    Stream #0:0: Video: h264 (High), yuv420p(progressive), 1920x950 [SAR 1:1 DAR 192:95], 150 fps, 150 tbr, 1200k tbn, 300 tbc\n",
      "Output #0, mp4, to '/tmp/tmp4wvey07p/24-05-01-13-26-43-110846.FrontLeft.0.mp4':\n",
      "  Metadata:\n",
      "    encoder         : Lavf58.29.100\n",
      "    Stream #0:0: Video: h264 (High) (avc1 / 0x31637661), yuv420p(progressive), 1920x950 [SAR 1:1 DAR 192:95], q=2-31, 150 fps, 150 tbr, 1200k tbn, 1200k tbc\n",
      "Stream mapping:\n",
      "  Stream #0:0 -> #0:0 (copy)\n",
      "Press [q] to stop, [?] for help\n",
      "[mp4 @ 0x55604a98f8c0] Timestamps are unset in a packet for stream 0. This is deprecated and will stop working in the future. Fix your code to set the timestamps properly\n",
      "frame=90000 fps=26452 q=-1.0 Lsize= 2303872kB time=00:10:00.05 bitrate=31452.6kbits/s speed= 176x    \n",
      "video:2302923kB audio:0kB subtitle:0kB other streams:0kB global headers:0kB muxing overhead: 0.041242%\n",
      "ffmpeg version 4.2 Copyright (c) 2000-2019 the FFmpeg developers\n",
      "  built with gcc 7.3.0 (crosstool-NG 1.23.0.449-a04d0)\n",
      "  configuration: --prefix=/home/tis697/.conda/envs/jupyter_launcher --cc=/home/conda/feedstock_root/build_artifacts/ffmpeg_1566210161358/_build_env/bin/x86_64-conda_cos6-linux-gnu-cc --disable-doc --disable-openssl --enable-avresample --enable-gnutls --enable-gpl --enable-hardcoded-tables --enable-libfreetype --enable-libopenh264 --enable-libx264 --enable-pic --enable-pthreads --enable-shared --enable-static --enable-version3 --enable-zlib --enable-libmp3lame\n",
      "  libavutil      56. 31.100 / 56. 31.100\n",
      "  libavcodec     58. 54.100 / 58. 54.100\n",
      "  libavformat    58. 29.100 / 58. 29.100\n",
      "  libavdevice    58.  8.100 / 58.  8.100\n",
      "  libavfilter     7. 57.100 /  7. 57.100\n",
      "  libavresample   4.  0.  0 /  4.  0.  0\n",
      "  libswscale      5.  5.100 /  5.  5.100\n",
      "  libswresample   3.  5.100 /  3.  5.100\n",
      "  libpostproc    55.  5.100 / 55.  5.100\n",
      "Input #0, h264, from '/n/groups/datta/tim_sainburg/datasets/chronic24/video/M04002/24-05-01-13-26-43-110846/24-05-01-13-26-43-110846.BackLeft.90000.mp4':\n",
      "  Duration: N/A, bitrate: N/A\n",
      "    Stream #0:0: Video: h264 (High), yuv420p(progressive), 1920x950 [SAR 1:1 DAR 192:95], 150 fps, 150 tbr, 1200k tbn, 300 tbc\n",
      "Output #0, mp4, to '/tmp/tmp4wvey07p/24-05-01-13-26-43-110846.BackLeft.90000.mp4':\n",
      "  Metadata:\n",
      "    encoder         : Lavf58.29.100\n",
      "    Stream #0:0: Video: h264 (High) (avc1 / 0x31637661), yuv420p(progressive), 1920x950 [SAR 1:1 DAR 192:95], q=2-31, 150 fps, 150 tbr, 1200k tbn, 1200k tbc\n",
      "Stream mapping:\n",
      "  Stream #0:0 -> #0:0 (copy)\n",
      "Press [q] to stop, [?] for help\n",
      "[mp4 @ 0x556a0fcb5440] Timestamps are unset in a packet for stream 0. This is deprecated and will stop working in the future. Fix your code to set the timestamps properly\n",
      "frame=    9 fps=0.0 q=-1.0 Lsize=     173kB time=00:00:00.08 bitrate=16315.7kbits/s speed= 476x    \n",
      "video:172kB audio:0kB subtitle:0kB other streams:0kB global headers:0kB muxing overhead: 0.524918%\n",
      "ffmpeg version 4.2 Copyright (c) 2000-2019 the FFmpeg developers\n",
      "  built with gcc 7.3.0 (crosstool-NG 1.23.0.449-a04d0)\n",
      "  configuration: --prefix=/home/tis697/.conda/envs/jupyter_launcher --cc=/home/conda/feedstock_root/build_artifacts/ffmpeg_1566210161358/_build_env/bin/x86_64-conda_cos6-linux-gnu-cc --disable-doc --disable-openssl --enable-avresample --enable-gnutls --enable-gpl --enable-hardcoded-tables --enable-libfreetype --enable-libopenh264 --enable-libx264 --enable-pic --enable-pthreads --enable-shared --enable-static --enable-version3 --enable-zlib --enable-libmp3lame\n",
      "  libavutil      56. 31.100 / 56. 31.100\n",
      "  libavcodec     58. 54.100 / 58. 54.100\n",
      "  libavformat    58. 29.100 / 58. 29.100\n",
      "  libavdevice    58.  8.100 / 58.  8.100\n",
      "  libavfilter     7. 57.100 /  7. 57.100\n",
      "  libavresample   4.  0.  0 /  4.  0.  0\n",
      "  libswscale      5.  5.100 /  5.  5.100\n",
      "  libswresample   3.  5.100 /  3.  5.100\n",
      "  libpostproc    55.  5.100 / 55.  5.100\n",
      "Input #0, h264, from '/n/groups/datta/tim_sainburg/datasets/chronic24/video/M04002/24-05-01-13-26-43-110846/24-05-01-13-26-43-110846.BackBottom.90000.mp4':\n",
      "  Duration: N/A, bitrate: N/A\n",
      "    Stream #0:0: Video: h264 (High), yuv420p(progressive), 1220x1200 [SAR 1:1 DAR 61:60], 150 fps, 150 tbr, 1200k tbn, 300 tbc\n",
      "Output #0, mp4, to '/tmp/tmp4wvey07p/24-05-01-13-26-43-110846.BackBottom.90000.mp4':\n",
      "  Metadata:\n",
      "    encoder         : Lavf58.29.100\n",
      "    Stream #0:0: Video: h264 (High) (avc1 / 0x31637661), yuv420p(progressive), 1220x1200 [SAR 1:1 DAR 61:60], q=2-31, 150 fps, 150 tbr, 1200k tbn, 1200k tbc\n",
      "Stream mapping:\n",
      "  Stream #0:0 -> #0:0 (copy)\n",
      "Press [q] to stop, [?] for help\n",
      "[mp4 @ 0x5635d9879700] Timestamps are unset in a packet for stream 0. This is deprecated and will stop working in the future. Fix your code to set the timestamps properly\n",
      "frame=    9 fps=0.0 q=-1.0 Lsize=     182kB time=00:00:00.08 bitrate=17206.6kbits/s speed= 484x    \n",
      "video:181kB audio:0kB subtitle:0kB other streams:0kB global headers:0kB muxing overhead: 0.497604%\n"
     ]
    },
    {
     "name": "stderr",
     "output_type": "stream",
     "text": [
      "ffmpeg version 4.2 Copyright (c) 2000-2019 the FFmpeg developers\n",
      "  built with gcc 7.3.0 (crosstool-NG 1.23.0.449-a04d0)\n",
      "  configuration: --prefix=/home/tis697/.conda/envs/jupyter_launcher --cc=/home/conda/feedstock_root/build_artifacts/ffmpeg_1566210161358/_build_env/bin/x86_64-conda_cos6-linux-gnu-cc --disable-doc --disable-openssl --enable-avresample --enable-gnutls --enable-gpl --enable-hardcoded-tables --enable-libfreetype --enable-libopenh264 --enable-libx264 --enable-pic --enable-pthreads --enable-shared --enable-static --enable-version3 --enable-zlib --enable-libmp3lame\n",
      "  libavutil      56. 31.100 / 56. 31.100\n",
      "  libavcodec     58. 54.100 / 58. 54.100\n",
      "  libavformat    58. 29.100 / 58. 29.100\n",
      "  libavdevice    58.  8.100 / 58.  8.100\n",
      "  libavfilter     7. 57.100 /  7. 57.100\n",
      "  libavresample   4.  0.  0 /  4.  0.  0\n",
      "  libswscale      5.  5.100 /  5.  5.100\n",
      "  libswresample   3.  5.100 /  3.  5.100\n",
      "  libpostproc    55.  5.100 / 55.  5.100\n",
      "Input #0, h264, from '/n/groups/datta/tim_sainburg/datasets/chronic24/video/M04002/24-05-01-13-26-43-110846/24-05-01-13-26-43-110846.FrontBottom.90000.mp4':\n",
      "  Duration: N/A, bitrate: N/A\n",
      "    Stream #0:0: Video: h264 (High), yuv420p(progressive), 1220x1200 [SAR 1:1 DAR 61:60], 150 fps, 150 tbr, 1200k tbn, 300 tbc\n",
      "Output #0, mp4, to '/tmp/tmp4wvey07p/24-05-01-13-26-43-110846.FrontBottom.90000.mp4':\n",
      "  Metadata:\n",
      "    encoder         : Lavf58.29.100\n",
      "    Stream #0:0: Video: h264 (High) (avc1 / 0x31637661), yuv420p(progressive), 1220x1200 [SAR 1:1 DAR 61:60], q=2-31, 150 fps, 150 tbr, 1200k tbn, 1200k tbc\n",
      "Stream mapping:\n",
      "  Stream #0:0 -> #0:0 (copy)\n",
      "Press [q] to stop, [?] for help\n",
      "[mp4 @ 0x5594aa663b80] Timestamps are unset in a packet for stream 0. This is deprecated and will stop working in the future. Fix your code to set the timestamps properly\n",
      "frame=    9 fps=0.0 q=-1.0 Lsize=     181kB time=00:00:00.08 bitrate=17090.5kbits/s speed= 419x    \n",
      "video:180kB audio:0kB subtitle:0kB other streams:0kB global headers:0kB muxing overhead: 0.501001%\n",
      "ffmpeg version 4.2 Copyright (c) 2000-2019 the FFmpeg developers\n",
      "  built with gcc 7.3.0 (crosstool-NG 1.23.0.449-a04d0)\n",
      "  configuration: --prefix=/home/tis697/.conda/envs/jupyter_launcher --cc=/home/conda/feedstock_root/build_artifacts/ffmpeg_1566210161358/_build_env/bin/x86_64-conda_cos6-linux-gnu-cc --disable-doc --disable-openssl --enable-avresample --enable-gnutls --enable-gpl --enable-hardcoded-tables --enable-libfreetype --enable-libopenh264 --enable-libx264 --enable-pic --enable-pthreads --enable-shared --enable-static --enable-version3 --enable-zlib --enable-libmp3lame\n",
      "  libavutil      56. 31.100 / 56. 31.100\n",
      "  libavcodec     58. 54.100 / 58. 54.100\n",
      "  libavformat    58. 29.100 / 58. 29.100\n",
      "  libavdevice    58.  8.100 / 58.  8.100\n",
      "  libavfilter     7. 57.100 /  7. 57.100\n",
      "  libavresample   4.  0.  0 /  4.  0.  0\n",
      "  libswscale      5.  5.100 /  5.  5.100\n",
      "  libswresample   3.  5.100 /  3.  5.100\n",
      "  libpostproc    55.  5.100 / 55.  5.100\n",
      "Input #0, h264, from '/n/groups/datta/tim_sainburg/datasets/chronic24/video/M04002/24-05-01-13-26-43-110846/24-05-01-13-26-43-110846.BackRight.90000.mp4':\n",
      "  Duration: N/A, bitrate: N/A\n",
      "    Stream #0:0: Video: h264 (High), yuv420p(progressive), 1920x950 [SAR 1:1 DAR 192:95], 150 fps, 150 tbr, 1200k tbn, 300 tbc\n",
      "Output #0, mp4, to '/tmp/tmp4wvey07p/24-05-01-13-26-43-110846.BackRight.90000.mp4':\n",
      "  Metadata:\n",
      "    encoder         : Lavf58.29.100\n",
      "    Stream #0:0: Video: h264 (High) (avc1 / 0x31637661), yuv420p(progressive), 1920x950 [SAR 1:1 DAR 192:95], q=2-31, 150 fps, 150 tbr, 1200k tbn, 1200k tbc\n",
      "Stream mapping:\n",
      "  Stream #0:0 -> #0:0 (copy)\n",
      "Press [q] to stop, [?] for help\n",
      "[mp4 @ 0x55c2031907c0] Timestamps are unset in a packet for stream 0. This is deprecated and will stop working in the future. Fix your code to set the timestamps properly\n",
      "frame=    9 fps=0.0 q=-1.0 Lsize=     179kB time=00:00:00.08 bitrate=16886.2kbits/s speed= 451x    \n",
      "video:178kB audio:0kB subtitle:0kB other streams:0kB global headers:0kB muxing overhead: 0.507093%\n",
      "ffmpeg version 4.2 Copyright (c) 2000-2019 the FFmpeg developers\n",
      "  built with gcc 7.3.0 (crosstool-NG 1.23.0.449-a04d0)\n",
      "  configuration: --prefix=/home/tis697/.conda/envs/jupyter_launcher --cc=/home/conda/feedstock_root/build_artifacts/ffmpeg_1566210161358/_build_env/bin/x86_64-conda_cos6-linux-gnu-cc --disable-doc --disable-openssl --enable-avresample --enable-gnutls --enable-gpl --enable-hardcoded-tables --enable-libfreetype --enable-libopenh264 --enable-libx264 --enable-pic --enable-pthreads --enable-shared --enable-static --enable-version3 --enable-zlib --enable-libmp3lame\n",
      "  libavutil      56. 31.100 / 56. 31.100\n",
      "  libavcodec     58. 54.100 / 58. 54.100\n",
      "  libavformat    58. 29.100 / 58. 29.100\n",
      "  libavdevice    58.  8.100 / 58.  8.100\n",
      "  libavfilter     7. 57.100 /  7. 57.100\n",
      "  libavresample   4.  0.  0 /  4.  0.  0\n",
      "  libswscale      5.  5.100 /  5.  5.100\n",
      "  libswresample   3.  5.100 /  3.  5.100\n",
      "  libpostproc    55.  5.100 / 55.  5.100\n",
      "Input #0, h264, from '/n/groups/datta/tim_sainburg/datasets/chronic24/video/M04002/24-05-01-13-26-43-110846/24-05-01-13-26-43-110846.FrontLeft.90000.mp4':\n",
      "  Duration: N/A, bitrate: N/A\n",
      "    Stream #0:0: Video: h264 (High), yuv420p(progressive), 1920x950 [SAR 1:1 DAR 192:95], 150 fps, 150 tbr, 1200k tbn, 300 tbc\n",
      "Output #0, mp4, to '/tmp/tmp4wvey07p/24-05-01-13-26-43-110846.FrontLeft.90000.mp4':\n",
      "  Metadata:\n",
      "    encoder         : Lavf58.29.100\n",
      "    Stream #0:0: Video: h264 (High) (avc1 / 0x31637661), yuv420p(progressive), 1920x950 [SAR 1:1 DAR 192:95], q=2-31, 150 fps, 150 tbr, 1200k tbn, 1200k tbc\n",
      "Stream mapping:\n",
      "  Stream #0:0 -> #0:0 (copy)\n",
      "Press [q] to stop, [?] for help\n",
      "[mp4 @ 0x555b1f80e640] Timestamps are unset in a packet for stream 0. This is deprecated and will stop working in the future. Fix your code to set the timestamps properly\n",
      "frame=    9 fps=0.0 q=-1.0 Lsize=     185kB time=00:00:00.08 bitrate=17505.0kbits/s speed= 444x    \n",
      "video:184kB audio:0kB subtitle:0kB other streams:0kB global headers:0kB muxing overhead: 0.489079%\n",
      "ffmpeg version 4.2 Copyright (c) 2000-2019 the FFmpeg developers\n",
      "  built with gcc 7.3.0 (crosstool-NG 1.23.0.449-a04d0)\n",
      "  configuration: --prefix=/home/tis697/.conda/envs/jupyter_launcher --cc=/home/conda/feedstock_root/build_artifacts/ffmpeg_1566210161358/_build_env/bin/x86_64-conda_cos6-linux-gnu-cc --disable-doc --disable-openssl --enable-avresample --enable-gnutls --enable-gpl --enable-hardcoded-tables --enable-libfreetype --enable-libopenh264 --enable-libx264 --enable-pic --enable-pthreads --enable-shared --enable-static --enable-version3 --enable-zlib --enable-libmp3lame\n",
      "  libavutil      56. 31.100 / 56. 31.100\n",
      "  libavcodec     58. 54.100 / 58. 54.100\n",
      "  libavformat    58. 29.100 / 58. 29.100\n",
      "  libavdevice    58.  8.100 / 58.  8.100\n",
      "  libavfilter     7. 57.100 /  7. 57.100\n",
      "  libavresample   4.  0.  0 /  4.  0.  0\n",
      "  libswscale      5.  5.100 /  5.  5.100\n",
      "  libswresample   3.  5.100 /  3.  5.100\n",
      "  libpostproc    55.  5.100 / 55.  5.100\n",
      "Input #0, h264, from '/n/groups/datta/tim_sainburg/datasets/chronic24/video/M04002/24-05-01-13-26-43-110846/24-05-01-13-26-43-110846.FrontRight.90000.mp4':\n",
      "  Duration: N/A, bitrate: N/A\n",
      "    Stream #0:0: Video: h264 (High), yuv420p(progressive), 1920x950 [SAR 1:1 DAR 192:95], 150 fps, 150 tbr, 1200k tbn, 300 tbc\n",
      "Output #0, mp4, to '/tmp/tmp4wvey07p/24-05-01-13-26-43-110846.FrontRight.90000.mp4':\n",
      "  Metadata:\n",
      "    encoder         : Lavf58.29.100\n",
      "    Stream #0:0: Video: h264 (High) (avc1 / 0x31637661), yuv420p(progressive), 1920x950 [SAR 1:1 DAR 192:95], q=2-31, 150 fps, 150 tbr, 1200k tbn, 1200k tbc\n",
      "Stream mapping:\n",
      "  Stream #0:0 -> #0:0 (copy)\n",
      "Press [q] to stop, [?] for help\n",
      "[mp4 @ 0x55c5f5a6b5c0] Timestamps are unset in a packet for stream 0. This is deprecated and will stop working in the future. Fix your code to set the timestamps properly\n",
      "frame=    9 fps=0.0 q=-1.0 Lsize=     175kB time=00:00:00.08 bitrate=16501.4kbits/s speed= 468x    \n",
      "video:174kB audio:0kB subtitle:0kB other streams:0kB global headers:0kB muxing overhead: 0.518980%\n"
     ]
    },
    {
     "data": {
      "application/vnd.jupyter.widget-view+json": {
       "model_id": "05c9846163eb4b73aa88691c00058b2c",
       "version_major": 2,
       "version_minor": 0
      },
      "text/plain": [
       "grabbing images from video:   0%|          | 0/120 [00:00<?, ?it/s]"
      ]
     },
     "metadata": {},
     "output_type": "display_data"
    }
   ],
   "source": [
    "lsc.create_labelling_set(\n",
    "    dataset_name = dataset_name,\n",
    "    n_frames_to_grab = 20\n",
    ")"
   ]
  }
 ],
 "metadata": {
  "kernelspec": {
   "display_name": "Python (peromoseq)",
   "language": "python",
   "name": "peromoseq"
  },
  "language_info": {
   "codemirror_mode": {
    "name": "ipython",
    "version": 3
   },
   "file_extension": ".py",
   "mimetype": "text/x-python",
   "name": "python",
   "nbconvert_exporter": "python",
   "pygments_lexer": "ipython3",
   "version": "3.10.13"
  }
 },
 "nbformat": 4,
 "nbformat_minor": 5
}
